<mxfile host="app.diagrams.net" modified="2023-04-28T09:37:09.593Z" agent="Mozilla/5.0 (X11; Linux x86_64) AppleWebKit/537.36 (KHTML, like Gecko) Chrome/112.0.0.0 Safari/537.36" version="21.2.3" etag="h9YuqTg8a21O0cOhQEGi" type="github">
  <diagram name="Page-1" id="VPzBy6d8X7ivUn4_0OSr">
    <mxGraphModel>
      <root>
        <mxCell id="0" />
        <mxCell id="1" parent="0" />
      </root>
    </mxGraphModel>
  </diagram>
</mxfile>
